<svg width="88" height="36" viewBox="0 0 88 36" fill="none" xmlns="http://www.w3.org/2000/svg">
<path d="M33.4983 7.87512V26.8991H40.2917C45.8604 26.8991 49.1347 23.3658 49.1347 17.341C49.1347 11.316 45.8476 7.87512 40.2917 7.87512H33.4983ZM36.8241 10.7491H39.9436C43.6561 10.7491 45.7444 13.0958 45.7444 17.3541C45.7444 21.6915 43.6819 24.0251 39.9436 24.0251H36.8241V10.7491Z" fill="#121127"/>
<path d="M51.5454 26.8991H54.7551V7.87512H51.5454V26.8991Z" fill="#121127"/>
<path d="M66.5371 22.7198C66.189 23.88 65.0546 24.6446 63.5593 24.6446C61.4582 24.6446 60.1175 23.1417 60.1175 20.9005V20.7027H69.6695V19.6348C69.6695 15.3898 67.246 12.6344 63.366 12.6344C59.4214 12.6344 56.9207 15.5479 56.9207 19.9645C56.9207 24.4205 59.3957 27.1758 63.4949 27.1758C66.7305 27.1758 69.1281 25.3566 69.5406 22.7198H66.5371ZM63.3789 15.1788C65.2223 15.1788 66.4598 16.5631 66.5242 18.5406H60.1433C60.2722 16.5894 61.5742 15.1788 63.3789 15.1788Z" fill="#121127"/>
<path d="M76.8496 21.8892L79.6855 26.8991H83.1918L78.8477 19.8326L83.2434 12.9244H79.7242L77.0043 17.8288H76.9398L74.1812 12.9244H70.5718L74.9418 19.9249L70.5332 26.8991H73.9493L76.7852 21.8892H76.8496Z" fill="#121127"/>
<path fill-rule="evenodd" clip-rule="evenodd" d="M13.2085 31.4999C20.4946 31.4949 26.3996 25.4528 26.3996 18C26.3996 10.5472 20.4946 4.50497 13.2085 4.50012C18.371 6.70649 21.9987 11.9199 21.9987 18C21.9987 24.08 18.371 29.2934 13.2085 31.4999Z" fill="#121127" fill-opacity="0.32"/>
<path d="M0 9.30049C0 6.64952 2.07363 4.50049 4.63158 4.50049H7.70016C14.9902 4.50049 20.9 10.5446 20.9 18.0003C20.9 25.4562 14.9902 31.5002 7.70016 31.5002H4.63158C2.07363 31.5002 0 29.3512 0 26.7002V9.30049Z" fill="#121127"/>
</svg>
