<svg width="104" height="126" viewBox="0 0 104 126" fill="none" xmlns="http://www.w3.org/2000/svg">
<g clip-path="url(#clip0_2018_191)">
<path d="M92.4512 3.26171L101.092 9.29426C103.78 11.1703 103.194 15.3049 100.091 16.3608L90.3095 19.6897C87.1026 20.7811 84.0757 17.6412 85.2838 14.4764L86.3114 11.7848C86.5448 11.1734 86.6246 10.5141 86.5438 9.86466L86.192 7.03507C85.7647 3.5978 89.6111 1.27899 92.4512 3.26171Z" fill="#FFBB24"/>
<path opacity="0.2" d="M83.7875 10.5403C24.4057 5.55986 -18.9048 48.4274 16.738 77.5897C29.3806 87.9336 45.088 86.7843 54.6657 77.2066C65.3928 66.4796 66.9252 48.8566 56.1982 38.1296C32.4455 14.3769 -25.4039 39.2789 16.3549 126.244" stroke="#F15060" stroke-width="2" stroke-linecap="round" stroke-dasharray="5.2 5.2"/>
</g>
<defs>
<clipPath id="clip0_2018_191">
<rect width="104" height="126" fill="white"/>
</clipPath>
</defs>
</svg>
