<svg width="55" height="55" viewBox="0 0 55 55" fill="none" xmlns="http://www.w3.org/2000/svg">
<g clip-path="url(#clip0_2012_189)">
<g filter="url(#filter0_d_2012_189)">
<rect x="-6" y="8.14679" width="54.6589" height="54.6589" rx="27.3295" transform="rotate(-15 -6 8.14679)" fill="#FFF3F3"/>
</g>
<path d="M42.7859 23.249C43.5942 26.2656 43.4898 29.4542 42.486 32.4115C41.4821 35.3688 39.6238 37.962 37.1462 39.8632C34.6685 41.7643 31.6827 42.8881 28.5663 43.0924C25.45 43.2966 22.343 42.5722 19.6384 41.0107C16.9338 39.4492 14.7529 37.1207 13.3716 34.3197C11.9904 31.5187 11.4707 28.3711 11.8783 25.2748C12.286 22.1784 13.6026 19.2725 15.6618 16.9245C17.7209 14.5765 20.4301 12.8918 23.4467 12.0835L27.5336 27.3358L42.7859 23.249Z" fill="#F15060"/>
<path d="M25.1643 9.10734C27.1672 8.57065 29.2563 8.43373 31.3122 8.70439C33.3681 8.97505 35.3505 9.648 37.1463 10.6848C38.9421 11.7216 40.5161 13.102 41.7785 14.7471C43.0408 16.3922 43.9667 18.2699 44.5034 20.2728L29.2511 24.3597L25.1643 9.10734Z" fill="#FF7482"/>
</g>
<defs>
<filter id="filter0_d_2012_189" x="-49.8646" y="-9.86461" width="154.673" height="154.673" filterUnits="userSpaceOnUse" color-interpolation-filters="sRGB">
<feFlood flood-opacity="0" result="BackgroundImageFix"/>
<feColorMatrix in="SourceAlpha" type="matrix" values="0 0 0 0 0 0 0 0 0 0 0 0 0 0 0 0 0 0 127 0" result="hardAlpha"/>
<feMorphology radius="20" operator="erode" in="SourceAlpha" result="effect1_dropShadow_2012_189"/>
<feOffset dy="40"/>
<feGaussianBlur stdDeviation="35"/>
<feColorMatrix type="matrix" values="0 0 0 0 0 0 0 0 0 0 0 0 0 0 0 0 0 0 0.2 0"/>
<feBlend mode="normal" in2="BackgroundImageFix" result="effect1_dropShadow_2012_189"/>
<feBlend mode="normal" in="SourceGraphic" in2="effect1_dropShadow_2012_189" result="shape"/>
</filter>
<clipPath id="clip0_2012_189">
<rect width="55" height="55" fill="white"/>
</clipPath>
</defs>
</svg>
